# Blender v2.75 (sub 0) OBJ File: 'white.blend'
# www.blender.org
mtllib white.mtl
o pCube1.001
v -3.139469 0.471198 21.941637
v -3.139469 0.471198 21.569866
v -3.450852 0.471198 21.569866
v 1.319038 0.000001 -3.683559
v 1.319038 -0.000004 21.569868
v 0.954655 -0.000004 21.941637
v -3.139469 -0.000004 21.941637
v -3.450852 -0.000004 21.569868
v -3.450852 0.000001 -3.683559
v -3.139469 0.000001 -4.093280
v 0.954655 0.000001 -4.093280
v 0.954655 0.471198 21.941637
v 1.319038 0.471198 21.569866
v 0.954655 0.471198 21.569866
v 0.954655 0.471203 -4.093280
v 1.319038 0.471203 -3.683559
v -3.139469 0.471203 -4.093280
v 0.954655 0.471203 -3.683559
v -3.139469 0.471203 -3.683559
v -3.450852 0.471203 -3.683559
vt -0.005115 0.978643
vt -0.003739 0.014511
vt 0.993393 0.016150
vt 0.998480 0.996571
vt 0.000030 0.000030
vt 0.999970 0.000030
vt 0.999970 0.090831
vt 0.000030 0.090831
vt 0.000034 0.115118
vt 0.999966 0.115119
vt 0.000074 0.000034
vt 0.999966 0.000379
vt 0.999926 0.115459
vt 2.292431 0.120160
vt 2.294539 -1.176348
vt -0.001368 0.000013
vt -0.001456 0.992192
vt -0.001775 0.994148
vt -0.001401 -0.141411
vt 2.129746 -0.614009
vt 2.133451 1.509537
vt 2.123263 -0.008329
vt -0.000328 -0.004573
vt 0.000126 0.943842
vt 2.123414 0.854592
vt -0.000065 0.982262
vt -0.000170 -0.039644
vt 2.398464 0.276937
vt 2.395527 0.922476
vt 0.999968 0.100101
vt 0.000032 0.100101
vt 0.625000 0.755092
vt 0.625000 0.995380
vt 0.605902 1.000000
vt 0.391320 1.000000
vt 0.375000 0.995380
vt 0.375000 0.755092
vt 0.391320 0.750000
vt 0.605902 0.750000
vt 0.391320 0.250000
vt 0.391320 0.254620
vt 0.375000 0.254620
vt 0.370380 0.250000
vt 0.370380 0.000000
vt 0.391320 0.000000
vt 0.605902 0.250000
vt 0.625000 0.254620
vt 0.605902 0.254620
vt 0.869908 0.000000
vt 0.605902 0.500000
vt 0.869908 0.250000
vt 0.629620 0.250000
vt 0.605902 0.000000
vt 0.629620 0.000000
vt 0.605902 0.494908
vt 0.625000 0.494908
vt 0.375000 0.494908
vt 0.391320 0.494908
vt 0.391320 0.500000
vt 0.130092 0.000000
vt 0.130092 0.250000
vn 0.000000 1.000000 0.000000
vn -0.092600 -0.000100 -0.995700
vn -0.092600 0.000000 -0.995700
vn 0.091500 0.000000 -0.995800
vn -0.084100 0.000000 0.996500
vn 0.083100 0.000200 0.996500
vn 0.083100 0.000000 0.996500
vn -0.999900 -0.000000 -0.012100
vn -0.999900 0.000100 0.012200
vn -0.999900 0.000000 0.012200
vn 0.999900 0.000000 0.014200
vn 0.999900 -0.000000 -0.014200
vn 0.000000 -1.000000 -0.000000
usemtl initialShadingGroup.001
s 1
f 2/1/1 14/2/1 18/3/1 19/4/1
usemtl initialShadingGroup.001_footwhite-red.jpg
f 1/5/1 12/6/1 14/7/1 2/8/1
f 10/9/2 17/5/3 15/6/4 11/10/4
f 1/9/5 7/11/5 6/12/6 12/13/7
f 14/14/1 13/15/1 16/16/1 18/17/1
f 3/18/1 2/19/1 19/20/1 20/21/1
f 9/22/8 8/23/9 3/24/10 20/25/8
f 13/26/11 5/27/11 4/28/12 16/29/12
f 19/5/1 18/6/1 15/30/1 17/31/1
usemtl initialShadingGroup.001_NONE
s off
f 4/32/13 5/33/13 6/34/13 7/35/13 8/36/13 9/37/13 10/38/13 11/39/13
s 1
f 1/40/1 2/41/1 3/42/1
f 1/40/5 3/43/10 8/44/9 7/45/5
f 12/46/1 13/47/1 14/48/1
f 4/49/12 11/39/4 15/50/4 16/51/12
f 13/52/11 12/46/7 6/53/6 5/54/11
f 18/55/1 16/56/1 15/50/1
f 20/57/1 19/58/1 17/59/1
f 10/38/2 9/60/8 20/61/8 17/59/3
