# This file uses centimeters as units for non-parametric coordinates.

mtllib home.mtl
g default
v -4.709450 -1.661592 16.384117
v 5.483327 -1.661592 16.384117
v -4.709450 -1.661592 -0.153066
v 5.483327 -1.661592 -0.153066
v 5.483327 7.717466 16.384117
v -4.709450 7.717466 16.384117
v -4.709450 7.717466 -0.153066
v 5.483327 7.717466 -0.153066
v 5.777512 7.699869 16.861416
v -5.003637 7.699869 16.861416
v -5.003637 7.699869 -0.630366
v 5.777512 7.699869 -0.630366
v 5.777512 8.063178 -0.630367
v -5.003637 8.063178 -0.630367
v -5.003637 8.063178 16.861416
v 5.777512 8.063178 16.861416
v -4.274447 9.144159 15.678347
v 5.048321 9.144159 15.678347
v 5.048321 9.144159 0.552703
v -4.274447 9.144159 0.552703
v -4.688833 8.071400 16.350665
v 5.462708 8.071400 16.350665
v -4.688833 8.071400 -0.119617
v 5.462708 8.071400 -0.119617
vt 0.375000 0.000000
vt 0.625000 0.000000
vt 0.375000 0.250000
vt 0.625000 0.250000
vt 0.375000 0.500000
vt 0.625000 0.500000
vt 0.375000 0.750000
vt 0.625000 0.750000
vt 0.375000 1.000000
vt 0.625000 1.000000
vt 0.875000 0.000000
vt 0.875000 0.250000
vt 0.125000 0.000000
vt 0.125000 0.250000
vt 0.625000 0.231696
vt 0.375000 0.231696
vt 0.125000 0.231696
vt 0.375000 0.518304
vt 0.625000 0.518304
vt 0.875000 0.231696
vt 0.375000 0.231696
vt 0.625000 0.231696
vt 0.125000 0.231696
vt 0.625000 0.518304
vt 0.375000 0.518304
vt 0.875000 0.231696
vt 0.625000 0.507992
vt 0.875000 0.242008
vt 0.125000 0.242008
vt 0.375000 0.507992
vt 0.375000 0.242008
vt 0.625000 0.242008
vt 0.375000 0.242008
vt 0.625000 0.242008
vt 0.125000 0.242008
vt 0.625000 0.507992
vt 0.375000 0.507992
vt 0.875000 0.242008
vn 0.000000 0.000000 1.000000
vn 0.000000 0.000000 1.000000
vn 0.000000 0.000000 1.000000
vn 0.000000 0.000000 1.000000
vn 0.000000 1.000000 0.000000
vn 0.000000 1.000000 0.000000
vn 0.000000 1.000000 0.000000
vn 0.000000 1.000000 0.000000
vn 0.000000 0.000000 -1.000000
vn 0.000000 0.000000 -1.000000
vn 0.000000 0.000000 -1.000000
vn 0.000000 0.000000 -1.000000
vn 0.000000 -1.000000 0.000000
vn 0.000000 -1.000000 0.000000
vn 0.000000 -1.000000 0.000000
vn 0.000000 -1.000000 0.000000
vn 1.000000 0.000000 0.000000
vn 1.000000 0.000000 0.000000
vn 1.000000 0.000000 0.000000
vn 1.000000 0.000000 0.000000
vn -1.000000 0.000000 0.000000
vn -1.000000 0.000000 0.000000
vn -1.000000 0.000000 0.000000
vn -1.000000 0.000000 0.000000
vn 0.000000 0.531045 0.847343
vn 0.000000 0.531045 0.847343
vn 0.000000 0.531045 0.847343
vn 0.000000 0.531045 0.847343
vn -0.932824 0.360332 0.000000
vn -0.932824 0.360332 0.000000
vn -0.932824 0.360332 0.000000
vn -0.932824 0.360332 0.000000
vn 0.000000 0.531047 -0.847343
vn 0.000000 0.531047 -0.847343
vn 0.000000 0.531047 -0.847343
vn 0.000000 0.531047 -0.847343
vn 0.932824 0.360332 0.000000
vn 0.932824 0.360332 0.000000
vn 0.932824 0.360332 0.000000
vn 0.932824 0.360332 0.000000
vn 0.000000 -0.999321 -0.036841
vn 0.000000 -0.999321 -0.036841
vn 0.000000 -0.999321 -0.036841
vn 0.000000 -0.999321 -0.036841
vn 0.059706 -0.998216 0.000000
vn 0.059706 -0.998216 0.000000
vn 0.059706 -0.998216 0.000000
vn 0.059706 -0.998216 0.000000
vn 0.000000 -0.999321 0.036842
vn 0.000000 -0.999321 0.036842
vn 0.000000 -0.999321 0.036842
vn 0.000000 -0.999321 0.036842
vn -0.059707 -0.998216 0.000000
vn -0.059707 -0.998216 0.000000
vn -0.059707 -0.998216 0.000000
vn -0.059707 -0.998216 0.000000
vn 0.000000 -0.000003 -1.000000
vn 0.000000 -0.000003 -1.000000
vn 0.000000 -0.000003 -1.000000
vn 0.000000 -0.000003 -1.000000
vn -1.000000 -0.000002 0.000000
vn -1.000000 -0.000002 0.000000
vn -1.000000 -0.000002 0.000000
vn -1.000000 -0.000002 0.000000
vn 0.000000 0.000000 1.000000
vn 0.000000 0.000000 1.000000
vn 0.000000 0.000000 1.000000
vn 0.000000 0.000000 1.000000
vn 1.000000 0.000000 0.000000
vn 1.000000 0.000000 0.000000
vn 1.000000 0.000000 0.000000
vn 1.000000 0.000000 0.000000
vn 0.000000 0.999871 0.016095
vn 0.000000 0.999871 0.016095
vn 0.000000 0.999871 0.016095
vn 0.000000 0.999871 0.016095
vn -0.026108 0.999659 0.000000
vn -0.026108 0.999659 0.000000
vn -0.026108 0.999659 0.000000
vn -0.026108 0.999659 0.000000
vn 0.000000 0.999870 -0.016095
vn 0.000000 0.999870 -0.016095
vn 0.000000 0.999871 -0.016095
vn 0.000000 0.999871 -0.016095
vn 0.026108 0.999659 0.000000
vn 0.026108 0.999659 0.000000
vn 0.026108 0.999659 0.000000
vn 0.026108 0.999659 0.000000
s off
g pCube1
usemtl initialShadingGroup
f 1/1/1 2/2/2 5/15/3 6/16/4
f 17/3/5 18/4/6 19/6/7 20/5/8
f 7/18/9 8/19/10 4/8/11 3/7/12
f 3/7/13 4/8/14 2/10/15 1/9/16
f 2/2/17 4/11/18 8/20/19 5/15/20
f 3/13/21 1/1/22 6/16/23 7/17/24
f 21/33/25 22/34/26 18/4/27 17/3/28
f 23/35/29 21/33/30 17/3/31 20/14/32
f 20/5/33 19/6/34 24/36/35 23/37/36
f 22/34/37 24/38/38 19/12/39 18/4/40
f 6/16/41 5/15/42 9/22/43 10/21/44
f 7/17/45 6/16/46 10/21/47 11/23/48
f 8/19/49 7/18/50 11/25/51 12/24/52
f 5/15/53 8/20/54 12/26/55 9/22/56
f 14/30/57 13/27/58 12/24/59 11/25/60
f 11/23/61 10/21/62 15/31/63 14/29/64
f 10/21/65 9/22/66 16/32/67 15/31/68
f 9/22/69 12/26/70 13/28/71 16/32/72
f 15/31/73 16/32/74 22/34/75 21/33/76
f 14/29/77 15/31/78 21/33/79 23/35/80
f 13/27/81 14/30/82 23/37/83 24/36/84
f 16/32/85 13/28/86 24/38/87 22/34/88
